<svg width="13" height="13" viewBox="0 0 13 13" fill="none" xmlns="http://www.w3.org/2000/svg">
<path d="M2.88467 12.3H0.341699V4.12427H2.88467V12.3ZM1.59951 3.03052C0.806543 3.03052 0.150293 2.34692 0.150293 1.52661C0.150293 0.733643 0.806543 0.0773926 1.59951 0.0773926C2.41982 0.0773926 3.07607 0.733643 3.07607 1.52661C3.07607 2.34692 2.41982 3.03052 1.59951 3.03052ZM12.3729 12.3H9.85732V8.33521C9.85732 7.37817 9.82998 6.17505 8.51748 6.17505C7.20498 6.17505 7.01357 7.18677 7.01357 8.25317V12.3H4.47061V4.12427H6.9042V5.24536H6.93154C7.28701 4.61646 8.10732 3.93286 9.33779 3.93286C11.9081 3.93286 12.4003 5.62817 12.4003 7.81567V12.3H12.3729Z" fill="white"/>
</svg>