<svg width="13" height="14" viewBox="0 0 13 14" fill="none" xmlns="http://www.w3.org/2000/svg">
<path d="M6.1752 3.90552C7.89785 3.90552 9.31973 5.32739 9.31973 7.05005C9.31973 8.80005 7.89785 10.1946 6.1752 10.1946C4.4252 10.1946 3.03066 8.80005 3.03066 7.05005C3.03066 5.32739 4.4252 3.90552 6.1752 3.90552ZM6.1752 9.10083C7.29629 9.10083 8.19863 8.19849 8.19863 7.05005C8.19863 5.92896 7.29629 5.02661 6.1752 5.02661C5.02676 5.02661 4.12441 5.92896 4.12441 7.05005C4.12441 8.19849 5.0541 9.10083 6.1752 9.10083ZM10.1674 3.79614C10.1674 4.2063 9.83926 4.53442 9.4291 4.53442C9.01895 4.53442 8.69082 4.2063 8.69082 3.79614C8.69082 3.38599 9.01895 3.05786 9.4291 3.05786C9.83926 3.05786 10.1674 3.38599 10.1674 3.79614ZM12.2455 4.53442C12.3002 5.54614 12.3002 8.5813 12.2455 9.59302C12.1908 10.5774 11.9721 11.425 11.2611 12.1633C10.5502 12.8743 9.6752 13.093 8.69082 13.1477C7.6791 13.2024 4.64395 13.2024 3.63223 13.1477C2.64785 13.093 1.8002 12.8743 1.06191 12.1633C0.350976 11.425 0.132226 10.5774 0.077539 9.59302C0.0228515 8.5813 0.0228515 5.54614 0.077539 4.53442C0.132226 3.55005 0.350976 2.67505 1.06191 1.96411C1.8002 1.25317 2.64785 1.03442 3.63223 0.979736C4.64395 0.925049 7.6791 0.925049 8.69082 0.979736C9.6752 1.03442 10.5502 1.25317 11.2611 1.96411C11.9721 2.67505 12.1908 3.55005 12.2455 4.53442ZM10.933 10.6594C11.2611 9.86646 11.1791 7.95239 11.1791 7.05005C11.1791 6.17505 11.2611 4.26099 10.933 3.44067C10.7143 2.92114 10.3041 2.48364 9.78457 2.29224C8.96426 1.96411 7.0502 2.04614 6.1752 2.04614C5.27285 2.04614 3.35879 1.96411 2.56582 2.29224C2.01895 2.51099 1.60879 2.92114 1.39004 3.44067C1.06191 4.26099 1.14395 6.17505 1.14395 7.05005C1.14395 7.95239 1.06191 9.86646 1.39004 10.6594C1.60879 11.2063 2.01895 11.6165 2.56582 11.8352C3.35879 12.1633 5.27285 12.0813 6.1752 12.0813C7.0502 12.0813 8.96426 12.1633 9.78457 11.8352C10.3041 11.6165 10.7416 11.2063 10.933 10.6594Z" fill="white"/>
</svg>