<svg xmlns="http://www.w3.org/2000/svg" width="384" height="50" viewBox="0 0 384 50" fill="none">
  <mask id="path-1-outside-1_331_285" maskUnits="userSpaceOnUse" x="0" y="-1" width="384" height="51" fill="black">
    <rect fill="white" y="-1" width="384" height="51"/>
    <path fill-rule="evenodd" clip-rule="evenodd" d="M177.009 8.60986C175.635 8.68799 174.262 8.77222 172.889 8.85035C154.69 9.57757 136.486 10.449 118.263 11.5248C106.818 12.1979 98.8476 12.7088 92.2918 13.1776C62.6459 14.7582 33.0722 17.0421 3.70336 20.2635C3.16365 20.3236 2.89018 20.4316 2.85592 20.4497C2.07942 20.8163 2.01271 21.4475 2.00129 21.754C1.98626 22.1867 2.09385 22.7575 2.80243 23.1362C2.88718 23.1782 3.0759 23.2804 3.39985 23.3045C3.53267 23.3165 5.14575 23.2024 8.19646 22.968C8.03419 23.3046 8.02698 23.629 8.08828 23.9235C8.14959 24.212 8.41826 25.0534 9.54935 25.1436C10.4653 25.2157 16.8107 24.3021 19.2749 24.0617C27.829 23.2324 36.3717 22.2767 44.9319 21.5075C58.3241 20.2994 71.726 19.2057 85.1296 18.1419C94.2673 17.4087 103.406 16.6934 112.548 15.9963C124.03 15.2751 135.516 14.6079 147.006 14.0069C180.02 13.1114 213.034 12.907 245.861 13.0693C284.981 13.2676 324.305 12.9491 363.172 17.5708L361.237 17.643L360.545 17.6671C343.633 16.1165 323.289 17.3185 308.961 17.1742C247.268 16.5612 186.554 18.5625 125.097 23.4788C100.976 25.414 76.8676 28.1126 52.8748 31.2078C44.5767 32.2836 23.0293 34.8137 20.0958 35.7573C19.0939 36.0759 18.8241 36.7671 18.7658 37.0075C18.678 37.3681 18.7159 37.7167 18.8872 38.0592C18.9984 38.2816 19.1871 38.5401 19.5561 38.7384C19.6967 38.8166 19.9516 38.9187 20.3501 38.9728C20.7143 39.0209 21.3622 39.051 22.3346 39.051C100.719 38.7324 178.806 29.4829 257.058 25.5163C285.936 24.0498 314.815 22.6615 343.699 21.3092C349.355 21.0448 355.016 20.8704 360.678 20.6661C361.868 20.7803 363.034 20.9064 364.182 21.0507L351.176 21.7359C325.254 23.1002 299.405 25.0355 273.532 27.163C213.611 32.0853 153.965 40.277 93.9933 44.3818C93.1663 44.4419 92.5406 45.1571 92.5971 45.9865C92.6536 46.8159 93.3719 47.441 94.1988 47.3809C154.184 43.276 213.846 35.0783 273.778 30.156C299.621 28.0345 325.441 26.0992 351.332 24.7349C360.539 24.2541 373.431 23.5749 375.889 23.4367C376.184 23.4186 376.352 23.4067 376.382 23.4007C377.091 23.3226 377.344 22.9018 377.38 22.8537C377.746 22.403 377.776 21.9402 377.662 21.5135C377.59 21.249 377.404 20.6961 376.64 20.4677C376.436 20.4076 376.232 20.3475 376.021 20.2934C378.281 20.2574 380.168 20.2094 380.691 20.0892C381.797 19.8307 381.971 18.9772 381.995 18.6647C382.019 18.3342 381.953 17.9796 381.689 17.631C381.581 17.4867 381.4 17.2944 381.076 17.1381C380.914 17.066 380.547 16.9458 379.904 16.8436C359.217 13.5802 338.374 11.9395 317.471 11.0861L330.435 11.1882C330.615 11.1882 330.699 11.1822 330.717 11.1822C331.481 11.1161 331.745 10.6473 331.805 10.5631C332.094 10.1605 332.148 9.74574 332.046 9.33706C332.04 9.30701 331.871 8.50764 331.066 8.25522L339.474 8.14708C341.181 8.12905 342.028 8.1051 342.179 8.09308C342.918 8.02096 343.182 7.58811 343.236 7.51599C343.591 7.07124 343.627 6.60846 343.495 6.15771C343.441 5.97139 343.254 5.29828 342.347 5.11798C342.299 5.10596 342.064 5.076 341.656 5.06999C337.924 5.00388 310.986 5.05787 300.625 5.11798C283.983 5.21414 267.335 5.31639 250.693 5.65295C238.595 5.89336 226.509 6.2719 214.423 6.76473C180.408 5.94736 146.428 4.55908 112.853 2.0048C112.026 1.93869 111.303 2.56376 111.24 3.38714C111.178 4.21653 111.798 4.93771 112.625 5.00382C133.955 6.62053 155.449 7.78047 177.009 8.60986ZM304.898 20.1432C244.683 19.6563 185.366 21.6697 125.337 26.4778C101.264 28.401 77.2041 31.0996 53.2594 34.1888C50.175 34.5914 45.2288 35.1864 40.1148 35.8235C112.477 34.357 184.62 26.1774 256.908 22.5112C272.901 21.6999 288.899 20.9124 304.898 20.1432Z"/>
  </mask>
  <path fill-rule="evenodd" clip-rule="evenodd" d="M177.009 8.60986C175.635 8.68799 174.262 8.77222 172.889 8.85035C154.69 9.57757 136.486 10.449 118.263 11.5248C106.818 12.1979 98.8476 12.7088 92.2918 13.1776C62.6459 14.7582 33.0722 17.0421 3.70336 20.2635C3.16365 20.3236 2.89018 20.4316 2.85592 20.4497C2.07942 20.8163 2.01271 21.4475 2.00129 21.754C1.98626 22.1867 2.09385 22.7575 2.80243 23.1362C2.88718 23.1782 3.0759 23.2804 3.39985 23.3045C3.53267 23.3165 5.14575 23.2024 8.19646 22.968C8.03419 23.3046 8.02698 23.629 8.08828 23.9235C8.14959 24.212 8.41826 25.0534 9.54935 25.1436C10.4653 25.2157 16.8107 24.3021 19.2749 24.0617C27.829 23.2324 36.3717 22.2767 44.9319 21.5075C58.3241 20.2994 71.726 19.2057 85.1296 18.1419C94.2673 17.4087 103.406 16.6934 112.548 15.9963C124.03 15.2751 135.516 14.6079 147.006 14.0069C180.02 13.1114 213.034 12.907 245.861 13.0693C284.981 13.2676 324.305 12.9491 363.172 17.5708L361.237 17.643L360.545 17.6671C343.633 16.1165 323.289 17.3185 308.961 17.1742C247.268 16.5612 186.554 18.5625 125.097 23.4788C100.976 25.414 76.8676 28.1126 52.8748 31.2078C44.5767 32.2836 23.0293 34.8137 20.0958 35.7573C19.0939 36.0759 18.8241 36.7671 18.7658 37.0075C18.678 37.3681 18.7159 37.7167 18.8872 38.0592C18.9984 38.2816 19.1871 38.5401 19.5561 38.7384C19.6967 38.8166 19.9516 38.9187 20.3501 38.9728C20.7143 39.0209 21.3622 39.051 22.3346 39.051C100.719 38.7324 178.806 29.4829 257.058 25.5163C285.936 24.0498 314.815 22.6615 343.699 21.3092C349.355 21.0448 355.016 20.8704 360.678 20.6661C361.868 20.7803 363.034 20.9064 364.182 21.0507L351.176 21.7359C325.254 23.1002 299.405 25.0355 273.532 27.163C213.611 32.0853 153.965 40.277 93.9933 44.3818C93.1663 44.4419 92.5406 45.1571 92.5971 45.9865C92.6536 46.8159 93.3719 47.441 94.1988 47.3809C154.184 43.276 213.846 35.0783 273.778 30.156C299.621 28.0345 325.441 26.0992 351.332 24.7349C360.539 24.2541 373.431 23.5749 375.889 23.4367C376.184 23.4186 376.352 23.4067 376.382 23.4007C377.091 23.3226 377.344 22.9018 377.38 22.8537C377.746 22.403 377.776 21.9402 377.662 21.5135C377.59 21.249 377.404 20.6961 376.64 20.4677C376.436 20.4076 376.232 20.3475 376.021 20.2934C378.281 20.2574 380.168 20.2094 380.691 20.0892C381.797 19.8307 381.971 18.9772 381.995 18.6647C382.019 18.3342 381.953 17.9796 381.689 17.631C381.581 17.4867 381.4 17.2944 381.076 17.1381C380.914 17.066 380.547 16.9458 379.904 16.8436C359.217 13.5802 338.374 11.9395 317.471 11.0861L330.435 11.1882C330.615 11.1882 330.699 11.1822 330.717 11.1822C331.481 11.1161 331.745 10.6473 331.805 10.5631C332.094 10.1605 332.148 9.74574 332.046 9.33706C332.04 9.30701 331.871 8.50764 331.066 8.25522L339.474 8.14708C341.181 8.12905 342.028 8.1051 342.179 8.09308C342.918 8.02096 343.182 7.58811 343.236 7.51599C343.591 7.07124 343.627 6.60846 343.495 6.15771C343.441 5.97139 343.254 5.29828 342.347 5.11798C342.299 5.10596 342.064 5.076 341.656 5.06999C337.924 5.00388 310.986 5.05787 300.625 5.11798C283.983 5.21414 267.335 5.31639 250.693 5.65295C238.595 5.89336 226.509 6.2719 214.423 6.76473C180.408 5.94736 146.428 4.55908 112.853 2.0048C112.026 1.93869 111.303 2.56376 111.24 3.38714C111.178 4.21653 111.798 4.93771 112.625 5.00382C133.955 6.62053 155.449 7.78047 177.009 8.60986ZM304.898 20.1432C244.683 19.6563 185.366 21.6697 125.337 26.4778C101.264 28.401 77.2041 31.0996 53.2594 34.1888C50.175 34.5914 45.2288 35.1864 40.1148 35.8235C112.477 34.357 184.62 26.1774 256.908 22.5112C272.901 21.6999 288.899 20.9124 304.898 20.1432Z" fill="#51B2FE"/>
  <path d="M177.009 8.60986L177.122 10.6066L177.086 6.61134L177.009 8.60986ZM172.889 8.85035L172.969 10.8488L172.985 10.8481L173.002 10.8471L172.889 8.85035ZM118.263 11.5248L118.381 13.5214L118.381 13.5213L118.263 11.5248ZM92.2918 13.1776L92.3983 15.1747L92.4164 15.1738L92.4345 15.1725L92.2918 13.1776ZM3.70336 20.2635L3.48529 18.2754L3.48201 18.2758L3.70336 20.2635ZM2.85592 20.4497L3.7098 22.2582L3.74903 22.2397L3.78741 22.2195L2.85592 20.4497ZM2.00129 21.754L0.00266695 21.6795L0.00249147 21.6846L2.00129 21.754ZM2.80243 23.1362L1.85986 24.9001L1.88627 24.9142L1.91309 24.9276L2.80243 23.1362ZM3.39985 23.3045L3.58011 21.3126L3.564 21.3111L3.54786 21.3099L3.39985 23.3045ZM8.19646 22.968L9.998 23.8366L11.5065 20.7078L8.04325 20.9739L8.19646 22.968ZM8.08828 23.9235L6.13024 24.3311L6.13197 24.3392L8.08828 23.9235ZM9.54935 25.1436L9.39045 27.1373L9.39236 27.1374L9.54935 25.1436ZM19.2749 24.0617L19.0818 22.0711L19.0807 22.0712L19.2749 24.0617ZM44.9319 21.5075L45.1109 23.4994L45.1115 23.4994L44.9319 21.5075ZM85.1296 18.1419L85.2879 20.1356L85.2896 20.1355L85.1296 18.1419ZM112.548 15.9963L112.423 14.0002L112.409 14.001L112.396 14.0021L112.548 15.9963ZM147.006 14.0069L146.952 12.0076L146.927 12.0083L146.902 12.0096L147.006 14.0069ZM245.861 13.0693L245.871 11.0693L245.871 11.0693L245.861 13.0693ZM363.172 17.5708L363.246 19.5694L363.408 15.5848L363.172 17.5708ZM361.237 17.643L361.306 19.6418L361.311 19.6416L361.237 17.643ZM360.545 17.6671L360.363 19.6587L360.489 19.6703L360.615 19.6659L360.545 17.6671ZM308.961 17.1742L308.981 15.1743L308.981 15.1743L308.961 17.1742ZM125.097 23.4788L124.938 21.4851L124.937 21.4852L125.097 23.4788ZM52.8748 31.2078L52.6189 29.2242L52.6176 29.2244L52.8748 31.2078ZM20.0958 35.7573L20.7018 37.6633L20.7082 37.6613L20.0958 35.7573ZM18.7658 37.0075L20.7091 37.4803L20.7094 37.4788L18.7658 37.0075ZM19.5561 38.7384L20.5274 36.9901L20.5152 36.9834L20.5029 36.9768L19.5561 38.7384ZM20.3501 38.9728L20.081 40.9546L20.0883 40.9556L20.3501 38.9728ZM22.3346 39.051V41.051L22.3427 41.051L22.3346 39.051ZM257.058 25.5163L257.159 27.5137L257.159 27.5137L257.058 25.5163ZM343.699 21.3092L343.606 19.3114L343.606 19.3114L343.699 21.3092ZM360.678 20.6661L360.869 18.6753L360.737 18.6626L360.606 18.6674L360.678 20.6661ZM364.182 21.0507L364.287 23.0479L364.431 19.0663L364.182 21.0507ZM351.176 21.7359L351.281 23.7332L351.281 23.7331L351.176 21.7359ZM273.532 27.163L273.695 29.1563L273.696 29.1563L273.532 27.163ZM93.9933 44.3818L93.8567 42.3865L93.8483 42.3871L93.9933 44.3818ZM94.1988 47.3809L94.0623 45.3855L94.0539 45.3861L94.1988 47.3809ZM273.778 30.156L273.614 28.1627L273.614 28.1628L273.778 30.156ZM351.332 24.7349L351.228 22.7377L351.227 22.7377L351.332 24.7349ZM375.889 23.4367L376.002 25.4335L376.011 25.4329L375.889 23.4367ZM376.382 23.4007L376.163 21.4127L376.076 21.4224L375.99 21.4396L376.382 23.4007ZM377.38 22.8537L375.828 21.5917L375.803 21.6223L375.78 21.6537L377.38 22.8537ZM377.662 21.5135L379.594 20.9965L379.592 20.9872L377.662 21.5135ZM376.64 20.4677L377.214 18.5516L377.205 18.549L376.64 20.4677ZM376.021 20.2934L375.99 18.2937L375.523 22.2304L376.021 20.2934ZM380.691 20.0892L381.139 22.0383L381.146 22.0367L380.691 20.0892ZM381.995 18.6647L383.99 18.8181L383.99 18.8098L381.995 18.6647ZM381.689 17.631L380.089 18.831L380.095 18.8398L381.689 17.631ZM381.076 17.1381L381.944 15.3361L381.916 15.3229L381.888 15.3105L381.076 17.1381ZM379.904 16.8436L380.218 14.8684L380.216 14.8681L379.904 16.8436ZM317.471 11.0861L317.487 9.08615L317.39 13.0844L317.471 11.0861ZM330.435 11.1882L330.419 13.1881L330.427 13.1882H330.435V11.1882ZM330.717 11.1822V13.1822H330.804L330.89 13.1747L330.717 11.1822ZM331.805 10.5631L330.179 9.39837L330.178 9.40066L331.805 10.5631ZM332.046 9.33706L330.085 9.72929L330.094 9.77596L330.105 9.82213L332.046 9.33706ZM331.066 8.25522L331.04 6.25538L330.468 10.1637L331.066 8.25522ZM339.474 8.14708L339.453 6.14718L339.448 6.14724L339.474 8.14708ZM342.179 8.09308L342.338 10.0867L342.356 10.0853L342.373 10.0836L342.179 8.09308ZM343.236 7.51599L341.673 6.26918L341.654 6.29232L341.636 6.31599L343.236 7.51599ZM343.495 6.15771L341.574 6.71533L341.576 6.72065L343.495 6.15771ZM342.347 5.11798L341.862 7.05826L341.909 7.07011L341.957 7.07963L342.347 5.11798ZM341.656 5.06999L341.62 7.06969L341.626 7.06978L341.656 5.06999ZM300.625 5.11798L300.637 7.11794L300.637 7.11794L300.625 5.11798ZM250.693 5.65295L250.733 7.65256L250.734 7.65254L250.693 5.65295ZM214.423 6.76473L214.375 8.76415L214.439 8.76571L214.504 8.76307L214.423 6.76473ZM112.853 2.0048L112.694 3.99845L112.701 3.99904L112.853 2.0048ZM111.24 3.38714L109.246 3.23431L109.246 3.23685L111.24 3.38714ZM112.625 5.00382L112.465 6.99747L112.473 6.9981L112.625 5.00382ZM304.898 20.1432L304.994 22.1409L304.914 18.1432L304.898 20.1432ZM125.337 26.4778L125.496 28.4715L125.497 28.4714L125.337 26.4778ZM53.2594 34.1888L53.0035 32.2052L53.0005 32.2056L53.2594 34.1888ZM40.1148 35.8235L39.8675 33.8388L40.1553 37.8231L40.1148 35.8235ZM256.908 22.5112L257.009 24.5087L257.009 24.5087L256.908 22.5112ZM176.895 6.61309C176.206 6.6523 175.517 6.69303 174.83 6.73359C174.143 6.77421 173.459 6.81467 172.775 6.85358L173.002 10.8471C173.692 10.8079 174.38 10.7672 175.066 10.7266C175.753 10.686 176.438 10.6456 177.122 10.6066L176.895 6.61309ZM172.809 6.85195C154.599 7.57959 136.383 8.45161 118.145 9.52828L118.381 13.5213C136.589 12.4464 154.78 11.5756 172.969 10.8488L172.809 6.85195ZM118.146 9.52826C106.696 10.2016 98.7167 10.713 92.1492 11.1827L92.4345 15.1725C98.9785 14.7045 106.939 14.1942 118.381 13.5214L118.146 9.52826ZM92.1853 11.1804C62.5081 12.7627 32.8967 15.0493 3.48529 18.2754L3.92143 22.2516C33.2477 19.0348 62.7838 16.7537 92.3983 15.1747L92.1853 11.1804ZM3.48201 18.2758C2.81647 18.3499 2.26739 18.4993 1.92442 18.6798L3.78741 22.2195C3.75991 22.234 3.73717 22.2451 3.72202 22.2523C3.70602 22.26 3.69237 22.2662 3.68178 22.271C3.66089 22.2803 3.64412 22.2873 3.63277 22.2919C3.60996 22.3012 3.59441 22.3068 3.58737 22.3092C3.57268 22.3144 3.57582 22.3126 3.59794 22.3068C3.64127 22.2954 3.7487 22.2708 3.92471 22.2512L3.48201 18.2758ZM2.00203 18.6411C1.19367 19.0228 0.648029 19.609 0.335867 20.2647C0.0455798 20.8745 0.0118545 21.4331 0.00267339 21.6795L3.9999 21.8284C4.00214 21.7684 4.00748 21.8581 3.94753 21.984C3.91433 22.0537 3.86746 22.1225 3.80993 22.1799C3.75256 22.2372 3.70967 22.2583 3.7098 22.2582L2.00203 18.6411ZM0.00249147 21.6846C-0.0114508 22.0861 0.0251307 22.6814 0.317185 23.3091C0.624827 23.9703 1.14734 24.5194 1.85986 24.9001L3.74501 21.3722C3.73553 21.3671 3.7677 21.3831 3.81572 21.4329C3.86486 21.4838 3.90998 21.5489 3.94383 21.6216C4.0087 21.761 3.999 21.8546 4.00008 21.8234L0.00249147 21.6846ZM1.91309 24.9276C1.90597 24.924 1.98095 24.9621 2.0535 24.9953C2.13579 25.033 2.23874 25.0763 2.36074 25.1183C2.60815 25.2034 2.90508 25.2732 3.25183 25.299L3.54786 21.3099C3.57067 21.3116 3.61127 21.3184 3.66214 21.3359C3.68587 21.3441 3.70551 21.3524 3.71845 21.3583C3.72431 21.361 3.72732 21.3625 3.72488 21.3613C3.72332 21.3605 3.72101 21.3594 3.71564 21.3567C3.71208 21.3549 3.70146 21.3496 3.69178 21.3448L1.91309 24.9276ZM3.21959 25.2963C3.3926 25.312 3.57681 25.3023 3.59622 25.3016C3.67808 25.2984 3.7788 25.2932 3.89259 25.2865C4.12227 25.2732 4.44115 25.2521 4.84418 25.2237C5.65212 25.1669 6.82335 25.0794 8.34967 24.9621L8.04325 20.9739C6.51886 21.091 5.35819 21.1777 4.56371 21.2336C4.16553 21.2616 3.86557 21.2813 3.6601 21.2933C3.55632 21.2994 3.48539 21.3029 3.4417 21.3046C3.33555 21.3087 3.4403 21.3 3.58011 21.3126L3.21959 25.2963ZM6.39492 22.0994C6.00404 22.9101 5.99853 23.6983 6.13026 24.3311L10.0463 23.5159C10.0487 23.5276 10.0566 23.5729 10.0505 23.6411C10.0439 23.7137 10.024 23.7826 9.998 23.8366L6.39492 22.0994ZM6.13197 24.3392C6.19853 24.6525 6.3779 25.2885 6.88553 25.8935C7.44168 26.5563 8.2839 27.0491 9.39045 27.1373L9.70825 23.1499C9.67043 23.1469 9.70365 23.1439 9.77341 23.1801C9.84274 23.2161 9.90392 23.2677 9.94976 23.3224C9.9918 23.3725 10.0132 23.4154 10.0234 23.4394C10.0336 23.4633 10.0397 23.485 10.0446 23.5078L6.13197 24.3392ZM9.39236 27.1374C9.84723 27.1732 10.6321 27.0991 11.3157 27.0281C12.0993 26.9466 13.0724 26.8295 14.078 26.7046C16.1198 26.4511 18.2719 26.1691 19.4691 26.0523L19.0807 22.0712C17.8137 22.1948 15.561 22.4898 13.5851 22.7351C12.5818 22.8597 11.6428 22.9725 10.902 23.0495C10.5307 23.0881 10.2235 23.1162 9.99002 23.1325C9.71469 23.1517 9.65375 23.1456 9.70635 23.1498L9.39236 27.1374ZM19.4679 26.0524C28.073 25.2181 36.5481 24.269 45.1109 23.4994L44.7528 19.5155C36.1953 20.2845 27.5849 21.2466 19.0818 22.0711L19.4679 26.0524ZM45.1115 23.4994C58.4931 22.2923 71.8865 21.1992 85.2879 20.1356L84.9714 16.1482C71.5654 17.2121 58.1552 18.3066 44.7522 19.5155L45.1115 23.4994ZM85.2896 20.1355C94.4247 19.4025 103.56 18.6874 112.7 17.9905L112.396 14.0021C103.251 14.6994 94.11 15.4149 84.9697 16.1483L85.2896 20.1355ZM112.674 17.9923C124.149 17.2715 135.628 16.6048 147.111 16.0042L146.902 12.0096C135.404 12.611 123.911 13.2786 112.423 14.0002L112.674 17.9923ZM147.061 16.0062C180.047 15.1114 213.039 14.9071 245.851 15.0693L245.871 11.0693C213.03 10.907 179.993 11.1114 146.952 12.0076L147.061 16.0062ZM245.851 15.0693C285.017 15.2678 324.208 14.9516 362.936 19.5568L363.408 15.5848C324.402 10.9465 284.944 11.2674 245.871 11.0693L245.851 15.0693ZM363.097 15.5722L361.162 15.6444L361.311 19.6416L363.246 19.5694L363.097 15.5722ZM361.167 15.6442L360.476 15.6683L360.615 19.6659L361.306 19.6418L361.167 15.6442ZM360.728 15.6754C343.721 14.1161 323.081 15.3163 308.981 15.1743L308.941 19.1741C323.497 19.3207 343.546 18.1169 360.363 19.6587L360.728 15.6754ZM308.981 15.1743C247.23 14.5607 186.457 16.5639 124.938 21.4851L125.257 25.4724C186.652 20.5612 247.305 18.5617 308.941 19.1741L308.981 15.1743ZM124.937 21.4852C100.775 23.4237 76.6332 26.1263 52.6189 29.2242L53.1307 33.1914C77.102 30.0989 101.177 27.4043 125.257 25.4724L124.937 21.4852ZM52.6176 29.2244C48.5885 29.7468 40.9133 30.676 34.2151 31.5489C30.8159 31.9919 27.5722 32.4323 24.9897 32.8221C22.4947 33.1986 20.4073 33.5562 19.4834 33.8534L20.7082 37.6613C21.251 37.4867 22.9572 37.1741 25.5866 36.7773C28.1286 36.3936 31.3405 35.9574 34.732 35.5154C41.6154 34.6184 48.8629 33.7447 53.1319 33.1912L52.6176 29.2244ZM19.4898 33.8513C17.6535 34.4352 16.9986 35.8083 16.8221 36.5361L20.7094 37.4788C20.6938 37.5433 20.6773 37.5852 20.6642 37.6129C20.65 37.6427 20.635 37.6659 20.6204 37.6836C20.6046 37.7027 20.594 37.7099 20.5963 37.7084C20.5984 37.7069 20.6281 37.6867 20.7018 37.6633L19.4898 33.8513ZM16.8225 36.5346C16.6223 37.3571 16.7165 38.1899 17.0983 38.9537L20.6761 37.1648C20.6873 37.1872 20.7081 37.2395 20.7165 37.3141C20.725 37.3888 20.7169 37.4482 20.7091 37.4803L16.8225 36.5346ZM17.0983 38.9537C17.355 39.4669 17.8068 40.0688 18.6093 40.5001L20.5029 36.9768C20.5181 36.9849 20.5572 37.0104 20.6008 37.0581C20.6426 37.1038 20.6665 37.1458 20.6761 37.1648L17.0983 38.9537ZM18.5848 40.4868C18.9674 40.6993 19.4653 40.871 20.081 40.9546L20.6191 36.9909C20.5298 36.9788 20.4812 36.9647 20.4673 36.9602C20.452 36.9553 20.4749 36.961 20.5274 36.9901L18.5848 40.4868ZM20.0883 40.9556C20.5921 41.0221 21.3523 41.051 22.3346 41.051V37.051C21.372 37.051 20.8364 37.0196 20.6118 36.99L20.0883 40.9556ZM22.3427 41.051C100.762 40.7323 179.114 31.4699 257.159 27.5137L256.957 23.5188C178.497 27.496 100.677 36.7326 22.3265 37.051L22.3427 41.051ZM257.159 27.5137C286.034 26.0474 314.91 24.6592 343.793 23.307L343.606 19.3114C314.72 20.6638 285.838 22.0522 256.957 23.5189L257.159 27.5137ZM343.793 23.307C349.434 23.0433 355.074 22.8697 360.75 22.6648L360.606 18.6674C354.958 18.8712 349.275 19.0463 343.606 19.3114L343.793 23.307ZM360.487 22.657C361.661 22.7697 362.807 22.8937 363.932 23.0351L364.431 19.0663C363.26 18.9192 362.074 18.7909 360.869 18.6753L360.487 22.657ZM364.076 19.0535L351.071 19.7387L351.281 23.7331L364.287 23.0479L364.076 19.0535ZM351.071 19.7387C325.121 21.1045 299.25 23.0415 273.368 25.1698L273.696 29.1563C299.56 27.0294 325.388 25.096 351.281 23.7332L351.071 19.7387ZM273.368 25.1697C243.378 27.6333 213.457 30.915 183.57 34.0901C153.673 37.2664 123.801 40.3369 93.8567 42.3865L94.1298 46.3772C124.157 44.3219 154.094 41.2441 183.993 38.0678C213.902 34.8903 243.765 31.615 273.695 29.1563L273.368 25.1697ZM93.8483 42.3871C91.9297 42.5265 90.47 44.188 90.6018 46.1224L94.5925 45.8506C94.6113 46.1262 94.4028 46.3573 94.1382 46.3766L93.8483 42.3871ZM90.6018 46.1224C90.7333 48.053 92.4073 49.5163 94.3438 49.3756L94.0539 45.3861C94.3364 45.3656 94.574 45.5787 94.5925 45.8506L90.6018 46.1224ZM94.3354 49.3762C124.369 47.3209 154.314 44.2416 184.219 41.0638C214.136 37.8848 244.005 34.608 273.942 32.1493L273.614 28.1628C243.618 30.6263 213.691 33.9095 183.797 37.0862C153.892 40.2639 124.013 43.3359 94.0623 45.3855L94.3354 49.3762ZM273.942 32.1493C299.777 30.0284 325.574 28.095 351.437 26.7322L351.227 22.7377C325.307 24.1035 299.466 26.0405 273.614 28.1627L273.942 32.1493ZM351.436 26.7322C360.641 26.2515 373.538 25.572 376.002 25.4335L375.777 21.4398C373.324 21.5778 360.438 22.2567 351.228 22.7377L351.436 26.7322ZM376.011 25.4329C376.16 25.4238 376.285 25.4158 376.379 25.409C376.387 25.4084 376.603 25.3962 376.774 25.3619L375.99 21.4396C376.039 21.4298 376.076 21.4242 376.092 21.422C376.111 21.4193 376.126 21.4175 376.133 21.4166C376.148 21.4149 376.156 21.4143 376.152 21.4146C376.146 21.4152 376.127 21.4168 376.09 21.4194C376.019 21.4246 375.913 21.4315 375.767 21.4404L376.011 25.4329ZM376.601 25.3887C377.342 25.3071 377.926 25.0312 378.358 24.6974C378.775 24.3745 379.02 24.0002 378.98 24.0537L375.78 21.6537C375.76 21.6794 375.746 21.7006 375.741 21.707C375.736 21.7146 375.73 21.7229 375.73 21.7232C375.727 21.7273 375.73 21.7231 375.734 21.7171C375.744 21.7035 375.758 21.6842 375.777 21.6626C375.813 21.6192 375.857 21.5748 375.909 21.5345C375.962 21.4935 376.016 21.462 376.069 21.4405C376.121 21.4187 376.156 21.4135 376.163 21.4127L376.601 25.3887ZM378.931 24.1157C379.774 23.08 379.843 21.9256 379.594 20.9965L375.73 22.0305C375.729 22.0277 375.71 21.9519 375.731 21.833C375.753 21.7024 375.807 21.6173 375.828 21.5917L378.931 24.1157ZM379.592 20.9872C379.45 20.4685 378.965 19.0755 377.214 18.5517L376.067 22.3838C376.064 22.3827 376.023 22.3694 375.966 22.3291C375.908 22.2889 375.856 22.2378 375.815 22.1828C375.737 22.0802 375.72 21.9948 375.733 22.0397L379.592 20.9872ZM377.205 18.549C377.006 18.4904 376.769 18.4205 376.52 18.3564L375.523 22.2304C375.695 22.2745 375.867 22.3248 376.076 22.3865L377.205 18.549ZM376.053 22.2932C377.184 22.2751 378.24 22.2538 379.085 22.2214C379.837 22.1924 380.654 22.1499 381.139 22.0383L380.243 18.14C380.273 18.1332 380.19 18.1508 379.906 18.1726C379.656 18.1918 379.329 18.209 378.931 18.2243C378.136 18.2549 377.119 18.2756 375.99 18.2937L376.053 22.2932ZM381.146 22.0367C382.205 21.7892 382.962 21.2017 383.427 20.486C383.855 19.8264 383.962 19.1738 383.99 18.8181L380.001 18.5113C380.004 18.4787 380.008 18.453 380.016 18.4275C380.023 18.4011 380.039 18.3585 380.071 18.3084C380.107 18.254 380.154 18.2032 380.207 18.1661C380.26 18.1289 380.282 18.131 380.236 18.1416L381.146 22.0367ZM383.99 18.8098C384.044 18.0705 383.884 17.2152 383.282 16.4222L380.095 18.8398C380.074 18.8114 380.04 18.7535 380.019 18.6731C379.998 18.5969 379.999 18.5399 380.001 18.5196L383.99 18.8098ZM383.289 16.431C383.031 16.0867 382.614 15.6591 381.944 15.3361L380.208 18.9401C380.209 18.9403 380.187 18.9296 380.156 18.9025C380.125 18.8756 380.102 18.8478 380.089 18.831L383.289 16.431ZM381.888 15.3105C381.512 15.1433 380.961 14.9865 380.218 14.8684L379.59 18.8189C379.851 18.8603 380.034 18.9019 380.15 18.9332C380.273 18.9664 380.302 18.9828 380.264 18.9657L381.888 15.3105ZM380.216 14.8681C359.429 11.5888 338.504 9.94314 317.553 9.08775L317.39 13.0844C338.245 13.9359 359.006 15.5716 379.592 18.8192L380.216 14.8681ZM317.456 13.086L330.419 13.1881L330.451 9.18827L317.487 9.08615L317.456 13.086ZM330.435 13.1882C330.548 13.1882 330.636 13.1863 330.703 13.1841C330.736 13.183 330.761 13.182 330.776 13.1813C330.786 13.1809 330.785 13.181 330.783 13.181C330.781 13.1811 330.775 13.1813 330.767 13.1815C330.76 13.1817 330.741 13.1822 330.717 13.1822V9.18219C330.691 9.18219 330.67 9.1827 330.66 9.18297C330.648 9.18328 330.638 9.18364 330.632 9.18386C330.622 9.18426 330.61 9.18478 330.606 9.18495C330.594 9.18544 330.584 9.18585 330.572 9.18628C330.546 9.1871 330.502 9.18821 330.435 9.18821V13.1882ZM330.89 13.1747C331.687 13.1057 332.316 12.8098 332.779 12.4377C333.213 12.0885 333.471 11.6721 333.433 11.7256L330.178 9.40066C330.154 9.43396 330.132 9.46668 330.132 9.46769C330.125 9.4774 330.125 9.47704 330.126 9.47629C330.129 9.472 330.138 9.45867 330.152 9.4415C330.179 9.40665 330.219 9.36336 330.271 9.32113C330.325 9.27794 330.384 9.24298 330.442 9.21893C330.501 9.1947 330.54 9.1901 330.545 9.18965L330.89 13.1747ZM333.431 11.7279C334.08 10.8227 334.223 9.79917 333.986 8.85199L330.105 9.82213C330.097 9.78737 330.084 9.70588 330.103 9.599C330.123 9.48941 330.164 9.41972 330.179 9.39837L333.431 11.7279ZM334.007 8.94483C333.986 8.84236 333.624 6.96111 331.664 6.34676L330.468 10.1637C330.393 10.1401 330.317 10.0974 330.255 10.0437C330.197 9.99428 330.165 9.94797 330.148 9.9213C330.133 9.89541 330.123 9.87368 330.116 9.8539C330.109 9.83359 330.098 9.79665 330.085 9.72929L334.007 8.94483ZM331.092 10.2551L339.5 10.1469L339.448 6.14724L331.04 6.25538L331.092 10.2551ZM339.495 10.147C341.165 10.1293 342.101 10.1057 342.338 10.0867L342.019 6.09945C342.036 6.09813 342.001 6.1007 341.866 6.10515C341.749 6.10904 341.584 6.11353 341.366 6.11831C340.932 6.12784 340.301 6.13823 339.453 6.14719L339.495 10.147ZM342.373 10.0836C343.129 10.0099 343.73 9.73635 344.178 9.39393C344.609 9.06489 344.86 8.68422 344.836 8.71599L341.636 6.31599C341.623 6.33436 341.612 6.34975 341.606 6.35695C341.601 6.36433 341.596 6.37198 341.594 6.37384C341.59 6.38028 341.591 6.37853 341.593 6.37541C341.599 6.36726 341.611 6.35182 341.627 6.33323C341.659 6.29561 341.7 6.25396 341.75 6.21514C341.802 6.17568 341.855 6.14573 341.905 6.12573C341.956 6.10561 341.986 6.10243 341.984 6.10253L342.373 10.0836ZM344.8 8.7628C345.622 7.73247 345.7 6.57088 345.414 5.59476L341.576 6.72065C341.576 6.72123 341.554 6.64397 341.574 6.51975C341.596 6.38489 341.651 6.29655 341.673 6.26918L344.8 8.7628ZM345.416 5.60009C345.38 5.47677 345.236 4.94229 344.819 4.40652C344.369 3.82896 343.681 3.34383 342.737 3.15632L341.957 7.07963C341.959 7.07992 341.911 7.06968 341.84 7.02545C341.77 6.98167 341.71 6.9246 341.663 6.86465C341.579 6.75709 341.556 6.65233 341.574 6.71533L345.416 5.60009ZM342.832 3.17769C342.539 3.10447 342.1 3.07631 341.685 3.07021L341.626 7.06978C341.789 7.07216 341.903 7.07914 341.969 7.08468C342.002 7.08749 342.018 7.08948 342.017 7.08937C342.017 7.08935 342.007 7.08807 341.989 7.08515C341.98 7.08366 341.966 7.08117 341.948 7.07756C341.931 7.0743 341.901 7.068 341.862 7.05826L342.832 3.17769ZM341.691 3.07031C337.93 3.00368 310.964 3.05797 300.613 3.11801L300.637 7.11794C311.009 7.05778 337.917 7.00409 341.62 7.06968L341.691 3.07031ZM300.614 3.11801C283.973 3.21416 267.311 3.31646 250.653 3.65336L250.734 7.65254C267.359 7.31632 283.993 7.21411 300.637 7.11794L300.614 3.11801ZM250.654 3.65335C238.54 3.89405 226.44 4.27305 214.341 4.76639L214.504 8.76307C226.578 8.27075 238.65 7.89266 250.733 7.65256L250.654 3.65335ZM214.471 4.76531C180.477 3.94844 146.534 2.56136 113.005 0.0105605L112.701 3.99904C146.322 6.5568 180.339 7.94628 214.375 8.76415L214.471 4.76531ZM113.012 0.0111581C111.071 -0.144037 109.393 1.31783 109.246 3.23431L113.235 3.53998C113.214 3.8097 112.981 4.02141 112.694 3.99844L113.012 0.0111581ZM109.246 3.23685C109.101 5.16735 110.544 6.8438 112.465 6.99745L112.784 3.01019C113.052 3.03161 113.255 3.26572 113.235 3.53744L109.246 3.23685ZM112.473 6.9981C133.833 8.61699 155.352 9.77821 176.932 10.6084L177.086 6.61134C155.546 5.78273 134.078 4.62406 112.776 3.00954L112.473 6.9981ZM304.914 18.1432C244.643 17.656 185.268 19.6712 125.177 24.4842L125.497 28.4714C185.465 23.6683 244.723 21.6567 304.882 22.1431L304.914 18.1432ZM125.178 24.4842C101.063 26.4107 76.9694 29.1133 53.0035 32.2052L53.5153 36.1723C77.4389 33.0859 101.465 30.3913 125.496 28.4715L125.178 24.4842ZM53.0005 32.2056C49.9231 32.6074 44.997 33.1998 39.8675 33.8388L40.362 37.8082C45.4605 37.173 50.4269 36.5755 53.5183 36.1719L53.0005 32.2056ZM40.1553 37.8231C112.509 36.3568 184.936 28.1639 257.009 24.5087L256.806 20.5138C184.304 24.1908 112.444 32.3573 40.0743 33.8239L40.1553 37.8231ZM257.009 24.5087C273 23.6974 288.997 22.9101 304.994 22.1409L304.802 18.1455C288.802 18.9148 272.801 19.7023 256.806 20.5138L257.009 24.5087Z" fill="#51B2FE" mask="url(#path-1-outside-1_331_285)"/>
</svg>